<svg xmlns="http://www.w3.org/2000/svg" viewBox="0 0 364.77 203.19"><defs><style>.cls-1{fill:#355de1;stroke:#fff;stroke-miterlimit:10;}</style></defs><g id="Camada_2" data-name="Camada 2"><g id="Camada_1-2" data-name="Camada 1"><path class="cls-1" d="M302.09,79.15h-.73a74.44,74.44,0,0,0-66-40.3,55.82,55.82,0,0,0-106-.07,74.49,74.49,0,0,0-66,40.3h-.73C28.34,79.09.5,106.74.5,140.85s27.84,61.77,62.18,61.77A62.07,62.07,0,0,0,124,151.13a74.31,74.31,0,0,0,51.3-40.44,56.54,56.54,0,0,0,7,.44,57.19,57.19,0,0,0,7.09-.44,74.29,74.29,0,0,0,51.33,40.5,62.08,62.08,0,0,0,61.32,51.5c34.34,0,62.18-27.66,62.18-61.77S336.43,79.15,302.09,79.15ZM130.71,125.78a55.84,55.84,0,0,1-7,3A62,62,0,0,0,86,83.59a60.08,60.08,0,0,1,27.91-20.41,56.53,56.53,0,0,1,12.94-2.77,55.29,55.29,0,0,0,27.49,43.23A59.56,59.56,0,0,1,130.71,125.78Zm110.39,3a56.59,56.59,0,0,1-7-3,59.63,59.63,0,0,1-23.69-22.21,55.25,55.25,0,0,0,27.47-43.16,56.38,56.38,0,0,1,13,2.77,60.09,60.09,0,0,1,27.9,20.41A62,62,0,0,0,241.1,128.82Z"/></g></g></svg>