<svg xmlns="http://www.w3.org/2000/svg" viewBox="0 0 393.44 281.12"><defs><style>.cls-1,.cls-2{fill:#355de1;stroke:#fff;stroke-miterlimit:10;}.cls-2{opacity:0.88;}</style></defs><g id="Camada_2" data-name="Camada 2"><g id="Camada_1-2" data-name="Camada 1"><path class="cls-1" d="M31.44,233.93a22,22,0,0,1-1.89,9.41,14.42,14.42,0,0,1-5.43,6.24,15.05,15.05,0,0,1-8.1,2.19A15.09,15.09,0,0,1,8,249.6a14.45,14.45,0,0,1-5.49-6.2,21.34,21.34,0,0,1-2-9.27v-1.8a21.81,21.81,0,0,1,1.93-9.44,14.34,14.34,0,0,1,5.47-6.26A15,15,0,0,1,16,214.44,15,15,0,0,1,24,216.63a14.34,14.34,0,0,1,5.47,6.26,21.75,21.75,0,0,1,1.93,9.42Zm-7.58-1.65c0-3.8-.69-6.7-2.05-8.68a6.66,6.66,0,0,0-5.84-3,6.67,6.67,0,0,0-5.81,2.93c-1.37,2-2.06,4.82-2.07,8.6v1.77q0,5.56,2,8.64A6.67,6.67,0,0,0,16,245.63a6.59,6.59,0,0,0,5.79-2.95c1.35-2,2-4.85,2.05-8.62Z"/><path class="cls-1" d="M44.24,245.26H62.56v6H34.89v-4.39l18-25.87H34.91v-6.07H62.16v4.29Z"/><path class="cls-1" d="M96.47,233.93a21.87,21.87,0,0,1-1.9,9.41,14.33,14.33,0,0,1-5.42,6.24,16.06,16.06,0,0,1-16.16,0,14.45,14.45,0,0,1-5.49-6.2,21.2,21.2,0,0,1-2-9.27v-1.8a21.81,21.81,0,0,1,1.93-9.44,14.34,14.34,0,0,1,5.47-6.26,16,16,0,0,1,16.14,0,14.34,14.34,0,0,1,5.47,6.26,21.75,21.75,0,0,1,1.93,9.42Zm-7.59-1.65c0-3.8-.68-6.7-2-8.68a7.23,7.23,0,0,0-11.65,0c-1.37,2-2.06,4.82-2.08,8.6v1.77c0,3.71.69,6.59,2,8.64a7.18,7.18,0,0,0,11.68.11c1.35-2,2-4.85,2-8.62Z"/><path class="cls-1" d="M131.46,251.27H124l-14.57-23.9v23.9h-7.49V214.94h7.49l14.59,24v-24h7.47Z"/><path class="cls-1" d="M146,251.27h-7.48V214.94H146Z"/><path class="cls-1" d="M182.73,233.93a22,22,0,0,1-1.89,9.41,14.42,14.42,0,0,1-5.43,6.24,16.06,16.06,0,0,1-16.16,0,14.45,14.45,0,0,1-5.49-6.2,21.48,21.48,0,0,1-2-9.27v-1.8a21.81,21.81,0,0,1,1.94-9.44,14.38,14.38,0,0,1,5.46-6.26,16,16,0,0,1,16.15,0,14.38,14.38,0,0,1,5.46,6.26,21.75,21.75,0,0,1,1.93,9.42Zm-7.58-1.65c0-3.8-.68-6.7-2.05-8.68a7.23,7.23,0,0,0-11.65,0c-1.37,2-2.06,4.82-2.07,8.6v1.77q0,5.56,2,8.64a6.67,6.67,0,0,0,5.89,3.06,6.57,6.57,0,0,0,5.79-2.95c1.35-2,2-4.85,2.05-8.62Z"/><path class="cls-1" d="M213.4,221H202.27v30.26h-7.48V221h-11v-6.07H213.4Z"/><path class="cls-1" d="M239.53,235.53H225.16v9.73H242v6H217.67V214.94H242V221H225.16v8.65h14.37Z"/><path class="cls-1" d="M259.87,238h-6v13.3h-7.48V214.94h13.5q6.43,0,9.93,2.87a9.94,9.94,0,0,1,3.49,8.11,11.18,11.18,0,0,1-1.61,6.2,10.93,10.93,0,0,1-4.88,4l7.86,14.84v.35h-8Zm-6-6.06h6a6.22,6.22,0,0,0,4.37-1.43,5.15,5.15,0,0,0,1.54-4,5.46,5.46,0,0,0-1.46-4,6,6,0,0,0-4.47-1.47h-6Z"/><path class="cls-1" d="M299.54,243.79H286.42l-2.5,7.48h-8l13.52-36.33h6.94L310,251.27h-8Zm-11.1-6.07h9.08L293,224.12Z"/><path class="cls-1" d="M320.9,238.47v12.8h-7.48V214.94h14.17a16.37,16.37,0,0,1,7.2,1.5,11.13,11.13,0,0,1,4.78,4.25,11.91,11.91,0,0,1,1.67,6.28,10.42,10.42,0,0,1-3.66,8.42q-3.65,3.09-10.12,3.08Zm0-6.06h6.69a6.59,6.59,0,0,0,4.53-1.4,5.07,5.07,0,0,0,1.56-4,6,6,0,0,0-1.57-4.32,5.86,5.86,0,0,0-4.35-1.69H320.9Z"/><path class="cls-1" d="M354.34,251.27h-7.49V214.94h7.49Z"/><path class="cls-1" d="M382.24,243.79H369.11l-2.49,7.48h-8l13.52-36.33h6.94l13.6,36.33h-8Zm-11.11-6.07h9.08l-4.56-13.6Z"/><path class="cls-2" d="M133.92,271.51v8.76H128.8V255.39h9.7a11.18,11.18,0,0,1,4.94,1,7.6,7.6,0,0,1,3.27,2.91,8.15,8.15,0,0,1,1.14,4.3,7.15,7.15,0,0,1-2.5,5.77,10.47,10.47,0,0,1-6.93,2.11Zm0-4.16h4.58a4.52,4.52,0,0,0,3.11-1,3.49,3.49,0,0,0,1.06-2.74,3.85,3.85,0,0,0-4-4.12h-4.7Z"/><path class="cls-2" d="M162.38,275.15h-9l-1.71,5.12h-5.45l9.26-24.88h4.75l9.32,24.88H164.1ZM154.77,271H161l-3.12-9.31Z"/><path class="cls-2" d="M177,276.15h10.88v4.12h-16V255.39H177Z"/><path class="cls-2" d="M197.53,255.39l6.39,18.05,6.36-18.05H217v24.88h-5.15v-6.8l.51-11.74-6.71,18.54h-3.52l-6.7-18.52.51,11.72v6.8h-5.13V255.39Z"/><path class="cls-2" d="M235.85,275.15h-9l-1.71,5.12H219.7L229,255.39h4.75L243,280.27h-5.46ZM228.24,271h6.22l-3.12-9.31Z"/><path class="cls-2" d="M258.25,273.75a2.62,2.62,0,0,0-1-2.23,13.69,13.69,0,0,0-3.69-1.65,25.69,25.69,0,0,1-4.23-1.7q-4.23-2.28-4.23-6.17a6,6,0,0,1,1.13-3.59,7.37,7.37,0,0,1,3.27-2.47,12.32,12.32,0,0,1,4.77-.89,11.08,11.08,0,0,1,4.75,1,7.56,7.56,0,0,1,3.24,2.72,7.13,7.13,0,0,1,1.16,4h-5.13a3.35,3.35,0,0,0-1.08-2.66,4.41,4.41,0,0,0-3-.95,4.72,4.72,0,0,0-2.92.8A2.5,2.5,0,0,0,250.2,262a2.41,2.41,0,0,0,1.23,2,13.69,13.69,0,0,0,3.59,1.53,15.61,15.61,0,0,1,6.38,3.27,6.52,6.52,0,0,1,2,4.85,6,6,0,0,1-2.45,5.07,10.73,10.73,0,0,1-6.58,1.84,12.76,12.76,0,0,1-5.23-1.05,8.36,8.36,0,0,1-3.59-2.88,7.37,7.37,0,0,1-1.24-4.24h5.14c0,2.74,1.64,4.12,4.92,4.12a4.79,4.79,0,0,0,2.86-.75A2.42,2.42,0,0,0,258.25,273.75Z"/><path class="cls-1" d="M315.31,79.15h-.72a74.44,74.44,0,0,0-66-40.3,55.82,55.82,0,0,0-106-.07,74.52,74.52,0,0,0-66,40.3h-.72c-34.35,0-62.19,27.65-62.19,61.76s27.84,61.77,62.19,61.77a62.08,62.08,0,0,0,61.32-51.49,74.36,74.36,0,0,0,51.3-40.44,56.42,56.42,0,0,0,7.05.44,57,57,0,0,0,7.08-.44A74.29,74.29,0,0,0,254,151.19a62.09,62.09,0,0,0,61.32,51.5c34.35,0,62.19-27.66,62.19-61.77S349.66,79.15,315.31,79.15ZM143.93,125.78a55.84,55.84,0,0,1-7,3A62,62,0,0,0,99.24,83.59a60.09,60.09,0,0,1,27.9-20.41,56.75,56.75,0,0,1,12.94-2.77,55.27,55.27,0,0,0,27.5,43.23A59.6,59.6,0,0,1,143.93,125.78Zm110.4,3a56,56,0,0,1-7-3,59.67,59.67,0,0,1-23.7-22.21,55.25,55.25,0,0,0,27.47-43.16,56.27,56.27,0,0,1,13,2.77A60.09,60.09,0,0,1,292,83.65,62,62,0,0,0,254.33,128.82Z"/></g></g></svg>